<?xml version="1.0" standalone="no"?>
<!DOCTYPE svg PUBLIC "-//W3C//DTD SVG 20010904//EN"
 "http://www.w3.org/TR/2001/REC-SVG-20010904/DTD/svg10.dtd">
<svg version="1.0" xmlns="http://www.w3.org/2000/svg"
 width="200.000000pt" height="200.000000pt" viewBox="0 0 200.000000 200.000000"
 preserveAspectRatio="xMidYMid meet">
<metadata>
Created by potrace 1.11, written by Peter Selinger 2001-2013
</metadata>
<g transform="translate(0.000000,200.000000) scale(0.100000,-0.100000)"
fill="#000000" stroke="none">
<path d="M746 1991 c-3 -4 -20 -11 -38 -15 -39 -8 -108 -53 -108 -71 0 -7 -7
-12 -16 -11 -9 0 -21 -8 -28 -19 -6 -11 -14 -22 -17 -25 -26 -20 -79 -96 -79
-111 0 -11 -9 -32 -20 -47 -10 -15 -28 -61 -39 -102 -22 -84 -45 -239 -37
-248 3 -3 -9 -16 -26 -29 -18 -13 -36 -31 -41 -39 -6 -11 1 -8 22 7 17 12 31
26 31 31 0 4 8 8 18 8 11 0 24 11 30 25 17 36 14 45 -3 15 l-14 -25 -1 33 c0
18 8 49 19 70 10 20 16 43 13 51 -2 8 0 11 6 7 5 -3 22 10 36 29 15 19 24 35
20 35 -3 0 -1 7 6 15 7 8 16 12 21 9 5 -3 32 13 61 35 29 22 55 38 57 35 3 -2
-4 -10 -14 -17 -17 -13 -17 -14 0 -21 14 -5 15 -9 5 -21 -7 -8 -9 -15 -4 -15
4 0 -8 -17 -27 -37 -18 -20 -26 -31 -17 -24 9 7 21 10 27 7 5 -3 24 6 43 21
18 15 27 20 20 12 -10 -14 -10 -18 2 -22 9 -4 18 -2 21 3 3 5 13 6 21 3 9 -3
28 6 47 23 20 19 16 12 -11 -18 -23 -26 -42 -53 -42 -60 1 -7 15 4 32 25 45
56 177 138 165 104 -2 -7 -12 -12 -23 -12 -10 -1 -18 -6 -17 -13 2 -6 -10 -18
-26 -27 -16 -8 -39 -29 -52 -46 -16 -23 -24 -27 -30 -18 -6 11 -9 9 -15 -4 -3
-10 -4 -21 0 -24 3 -4 6 -1 6 5 0 6 6 9 13 6 7 -2 22 3 33 13 48 43 67 57 60
46 -4 -7 -3 -13 2 -13 12 0 43 35 37 42 -3 2 2 5 10 5 8 0 15 -5 15 -10 0 -5
7 -6 16 -3 12 5 15 2 10 -10 -4 -12 -2 -15 9 -10 8 3 15 1 15 -4 0 -6 -4 -10
-8 -10 -14 0 -42 -57 -42 -86 0 -26 0 -27 20 -9 11 10 20 13 20 7 0 -7 -4 -12
-9 -12 -5 0 -16 -17 -24 -37 -14 -37 -14 -38 7 -45 21 -6 21 -6 -2 -7 -13 -1
-20 -5 -17 -11 3 -5 34 -10 68 -10 34 0 69 -5 77 -10 13 -8 -38 -7 -145 3 -13
1 -24 -9 -35 -31 -9 -19 -23 -38 -31 -43 -10 -6 -4 -9 21 -9 60 -1 185 -12
190 -18 3 -2 -43 -1 -102 2 -74 5 -108 4 -108 -3 0 -6 -10 -11 -22 -12 -13 0
-17 -3 -10 -6 18 -7 15 -16 -9 -32 -20 -12 -21 -11 -17 13 5 25 3 26 -38 26
-24 0 -44 4 -44 9 0 4 23 6 50 3 56 -5 72 14 18 21 -28 3 -26 4 12 6 38 3 41
4 20 11 -17 5 -19 8 -7 9 9 1 22 11 28 24 5 12 24 30 41 40 20 12 29 23 26 35
-3 10 -2 41 2 70 5 43 4 50 -7 40 -8 -6 -12 -21 -9 -32 6 -26 -8 -51 -23 -41
-7 4 -18 1 -26 -5 -16 -13 -21 -1 -7 16 4 5 -6 -3 -21 -19 -16 -15 -39 -34
-52 -43 -12 -8 -25 -24 -28 -36 -5 -16 -3 -18 6 -9 16 16 23 14 24 -7 1 -10
-6 -18 -15 -18 -9 -1 -30 -5 -46 -9 -21 -6 -27 -5 -22 4 11 18 -15 13 -31 -6
-8 -10 -12 -12 -8 -6 4 8 1 11 -8 7 -8 -3 -17 -14 -20 -26 -6 -23 -44 -21 -39
3 2 8 -9 3 -25 -12 -37 -35 -61 -46 -98 -45 -24 1 -29 5 -28 24 2 45 3 48 12
34 7 -11 9 -10 14 3 4 9 3 13 -3 10 -6 -3 -10 0 -10 7 0 7 -11 -4 -25 -25 -14
-20 -31 -37 -37 -37 -7 0 -5 7 4 18 30 35 30 46 0 18 -17 -15 -35 -25 -41 -22
-6 4 -9 1 -5 -7 3 -8 0 -18 -6 -22 -17 -11 -130 -23 -130 -14 0 17 -39 -5 -51
-29 -22 -44 -22 -45 -10 -38 6 4 11 3 11 -1 0 -18 -25 -33 -54 -33 -28 -1 -29
-2 -14 -14 21 -16 24 -46 4 -46 -13 0 -20 -25 -30 -111 -1 -14 -6 -30 -9 -36
-4 -6 0 -14 8 -17 9 -3 20 3 27 14 7 11 18 20 25 20 7 0 13 5 13 10 0 6 7 10
15 10 8 0 15 5 15 11 0 5 4 7 10 4 5 -3 10 -1 10 6 0 10 3 10 12 1 9 -9 7 -17
-10 -35 -12 -13 -22 -34 -22 -48 0 -13 -14 -42 -32 -64 -18 -23 -22 -32 -10
-21 12 11 22 14 22 8 0 -5 -14 -22 -31 -36 -20 -17 -25 -26 -15 -26 9 0 16 4
16 9 0 5 7 12 16 15 14 5 15 4 4 -9 -7 -9 -11 -18 -8 -21 3 -2 20 12 37 32 36
40 44 39 43 -6 -1 -58 -23 -96 -66 -118 -39 -20 -39 -21 -13 -21 15 -1 27 4
27 10 0 6 5 7 13 2 22 -14 42 -8 72 21 25 23 31 25 33 11 5 -25 -7 -48 -22
-42 -8 3 -22 -1 -33 -9 -17 -13 -17 -15 -1 -28 10 -7 18 -23 18 -35 0 -13 6
-21 18 -21 13 0 10 -6 -13 -25 -16 -13 -26 -24 -22 -25 4 0 3 -9 -3 -19 -7
-13 -16 -17 -31 -14 -13 4 -27 0 -33 -8 -6 -8 -24 -22 -39 -32 -15 -10 -25
-22 -22 -27 3 -5 -6 -12 -20 -16 -14 -3 -25 -10 -25 -14 0 -5 9 -6 20 -3 11 3
20 0 20 -6 0 -6 18 -11 45 -11 37 0 43 3 38 16 -5 13 -2 15 17 9 19 -6 22 -4
17 9 -4 9 -2 16 3 16 19 0 10 -30 -12 -44 -13 -8 -49 -18 -81 -21 -31 -4 -59
-11 -62 -15 -5 -8 35 -7 75 3 68 16 81 17 75 7 -3 -5 -17 -10 -30 -10 -15 0
-23 -5 -20 -12 4 -9 -9 -14 -42 -16 -46 -3 -68 -16 -56 -35 2 -4 11 -3 18 3 8
7 16 7 19 2 3 -6 -5 -13 -19 -16 -22 -6 -24 -11 -23 -50 1 -25 6 -42 12 -39 6
4 6 -1 1 -13 -14 -34 -17 -71 -6 -78 6 -4 11 -2 11 3 0 6 5 11 11 11 5 0 7 -4
4 -10 -9 -14 8 -13 23 2 9 9 12 9 12 0 0 -7 5 -12 10 -12 6 0 10 10 10 22 0
12 3 18 6 15 4 -3 22 10 40 31 18 20 34 32 34 26 0 -5 -5 -15 -12 -22 -6 -6
-9 -14 -6 -17 2 -3 13 12 24 32 21 42 47 67 53 52 4 -13 41 20 41 38 0 7 5 13
10 13 6 0 10 8 9 18 0 16 -1 16 -12 -1 -33 -51 -36 -53 -33 -27 1 14 6 31 10
38 5 8 2 10 -10 5 -16 -6 -16 -4 2 20 10 14 24 27 31 27 6 0 14 6 16 13 4 9 6
9 6 -1 1 -7 -6 -15 -14 -18 -8 -4 -15 -10 -15 -16 0 -5 5 -6 10 -3 6 3 13 -1
16 -9 7 -19 30 -21 37 -3 4 9 6 9 6 -2 1 -7 -10 -22 -24 -33 -14 -11 -23 -24
-19 -29 3 -6 0 -16 -6 -24 -6 -8 -9 -19 -6 -24 4 -5 2 -12 -4 -16 -5 -3 -10
-11 -10 -18 0 -8 3 -8 12 1 23 23 27 12 13 -29 -18 -49 -18 -59 -5 -59 6 0 10
9 10 20 0 69 107 193 176 206 22 3 45 11 51 16 8 6 40 7 85 2 40 -5 81 -7 92
-6 12 1 16 -3 13 -12 -4 -9 -1 -13 6 -11 26 8 291 13 267 5 -14 -4 -74 -9
-135 -9 -86 -1 -106 -4 -91 -13 13 -7 61 -9 140 -6 77 4 101 3 66 -2 -30 -5
-82 -9 -115 -10 -58 -1 -126 -18 -81 -19 10 -1 24 -7 30 -15 9 -11 26 -12 91
-4 184 21 215 24 208 17 -5 -4 -33 -12 -63 -18 l-55 -10 55 3 c30 2 64 7 75
11 l20 8 -20 -16 c-11 -9 -33 -17 -50 -18 l-30 -2 28 -4 c27 -4 28 -5 10 -19
-16 -12 -15 -13 17 -7 69 12 103 28 112 52 8 22 7 23 -29 17 -36 -5 -35 -4 12
14 49 20 49 20 12 14 -26 -3 -37 -2 -32 5 3 6 14 11 23 11 9 0 24 5 32 11 11
8 6 9 -20 4 -26 -5 -31 -4 -20 4 8 6 23 11 32 11 9 0 20 5 24 11 4 7 0 9 -12
6 -48 -15 -79 -19 -64 -8 8 5 32 13 52 16 46 8 51 23 6 18 -27 -3 -29 -1 -13
6 11 5 30 10 43 10 12 1 22 5 22 9 0 5 -15 7 -32 5 -25 -2 -21 1 15 11 65 19
73 30 17 23 l-45 -6 43 11 c52 13 56 29 5 17 -55 -12 -53 -3 3 15 l49 16 -50
-4 -50 -5 48 15 c27 9 51 13 55 10 3 -4 1 -26 -5 -49 -7 -26 -8 -44 -2 -48 6
-3 6 -16 -1 -34 -6 -16 -8 -36 -4 -44 13 -28 11 -155 -2 -194 -17 -49 -10 -47
16 4 12 23 24 39 26 36 3 -3 -2 -19 -10 -36 -19 -35 -19 -41 -7 -41 5 0 15 16
22 35 7 19 16 35 20 35 5 0 1 -16 -7 -35 -13 -32 -13 -35 3 -35 13 0 30 26 57
85 21 47 41 84 43 82 2 -2 -13 -38 -32 -80 -19 -42 -35 -77 -35 -79 0 -2 9 -4
21 -5 14 -1 23 7 31 28 6 17 12 28 14 26 3 -2 0 -16 -5 -31 -7 -17 -7 -26 -1
-26 6 0 10 5 10 12 0 9 3 9 12 0 7 -7 26 -12 44 -12 34 0 35 5 19 97 -5 26 -3
32 9 27 17 -6 31 -74 21 -104 -4 -12 -2 -20 6 -20 9 0 10 17 6 63 -7 78 -23
114 -56 132 -18 10 -21 14 -9 15 21 0 58 -46 65 -82 5 -26 23 -40 23 -18 0 21
-51 111 -60 105 -5 -3 -15 4 -23 16 -11 15 -16 17 -20 7 -3 -7 -3 2 0 20 3 20
1 32 -6 32 -6 0 -11 -9 -11 -19 0 -20 -16 -36 -35 -36 -5 0 -15 -10 -21 -23
l-11 -23 -6 22 c-11 41 14 131 65 231 14 29 -15 12 -34 -20 l-17 -27 2 32 c1
18 5 33 9 33 3 0 16 20 28 45 12 24 30 47 41 50 10 4 19 12 19 19 0 8 20 12
65 12 36 -1 65 -5 65 -10 0 -5 3 -7 6 -3 10 9 102 -52 124 -83 11 -15 20 -38
20 -49 0 -12 4 -21 9 -21 11 0 0 44 -18 78 -16 30 -109 89 -159 100 -23 6 -42
8 -42 6 0 -3 -10 0 -21 7 -19 10 -21 16 -15 71 4 33 16 75 26 93 47 84 87 245
61 245 -5 0 -11 8 -13 18 -3 12 -10 4 -25 -25 -12 -24 -17 -43 -12 -43 5 0 6
-19 3 -43 -4 -23 -4 -39 0 -35 7 5 12 47 16 113 1 17 3 17 11 -5 14 -33 6 -84
-20 -140 -18 -39 -21 -41 -17 -15 2 17 -2 57 -9 90 -7 33 -14 56 -14 50 -1 -5
-6 -3 -11 5 -6 9 -10 10 -10 3 0 -13 -39 -53 -52 -53 -4 0 -8 8 -8 18 0 19 41
62 60 62 6 0 19 7 27 16 16 15 18 27 22 109 1 33 3 37 12 22 6 -10 8 -25 5
-33 -7 -17 3 -64 13 -64 3 0 6 17 7 38 0 20 2 78 4 127 3 72 0 97 -14 125 -13
22 -21 70 -27 142 -7 99 -11 116 -50 194 -43 88 -127 191 -177 217 -15 8 -58
31 -97 50 l-70 37 -232 0 c-127 0 -234 -4 -237 -9z m374 -21 c0 -5 -5 -10 -11
-10 -5 0 -7 5 -4 10 3 6 8 10 11 10 2 0 4 -4 4 -10z m110 -50 c0 -5 -7 -7 -15
-4 -8 4 -15 8 -15 10 0 2 7 4 15 4 8 0 15 -4 15 -10z m-50 -40 c0 -5 -2 -10
-4 -10 -3 0 -8 5 -11 10 -3 6 -1 10 4 10 6 0 11 -4 11 -10z m-490 -40 c0 -5
-2 -10 -4 -10 -3 0 -8 5 -11 10 -3 6 -1 10 4 10 6 0 11 -4 11 -10z m-100 -9
c0 -6 -4 -13 -10 -16 -5 -3 -10 1 -10 9 0 9 5 16 10 16 6 0 10 -4 10 -9z m730
-5 c0 -8 -4 -17 -9 -21 -6 -3 -9 4 -8 15 1 23 17 28 17 6z m-5 -56 c3 -5 1
-10 -4 -10 -6 0 -11 5 -11 10 0 6 2 10 4 10 3 0 8 -4 11 -10z m-805 -51 c0 -5
-4 -9 -10 -9 -5 0 -10 7 -10 16 0 8 5 12 10 9 6 -3 10 -10 10 -16z m570 11 c0
-5 -2 -10 -4 -10 -3 0 -8 5 -11 10 -3 6 -1 10 4 10 6 0 11 -4 11 -10z m-128
-32 c-7 -7 -12 -8 -12 -2 0 14 12 26 19 19 2 -3 -1 -11 -7 -17z m-142 -10 c0
-4 11 -3 25 2 14 5 25 7 25 4 0 -3 -13 -10 -30 -15 -16 -6 -28 -15 -25 -20 3
-4 -8 -15 -26 -24 -17 -9 -28 -12 -25 -6 11 18 -7 12 -34 -10 -16 -14 -19 -19
-7 -15 22 7 22 -1 -1 -13 -10 -5 -24 -6 -32 -1 -10 6 1 17 38 40 51 31 68 48
36 36 -8 -3 -12 -2 -9 4 11 17 -19 11 -63 -15 -23 -13 -40 -19 -36 -14 19 32
164 73 164 47z m158 -13 c-6 -14 -13 -23 -15 -21 -5 5 15 46 22 46 3 0 -1 -11
-7 -25z m71 -7 c-5 -10 -12 -18 -15 -18 -3 0 -2 5 2 11 4 7 1 10 -7 7 -9 -3
-15 -22 -16 -52 -2 -55 17 -59 28 -7 4 18 12 38 17 43 7 7 7 -2 0 -30 -13 -51
-4 -92 20 -92 15 0 15 -2 2 -10 -13 -9 -13 -11 0 -20 8 -5 10 -10 4 -10 -17 0
-26 -29 -15 -48 11 -19 20 -19 31 -2 6 9 11 7 19 -9 8 -15 9 -21 1 -21 -6 0
-9 -4 -6 -9 3 -4 17 -6 31 -3 23 4 24 6 11 21 -20 22 -38 71 -26 71 6 0 10 12
10 27 0 36 12 22 16 -19 3 -24 1 -29 -6 -18 -5 8 -10 10 -10 5 0 -6 7 -21 16
-34 23 -33 41 -11 19 23 -11 16 -13 26 -6 26 6 0 16 -11 21 -24 5 -13 14 -27
19 -31 6 -3 20 -28 32 -55 11 -26 31 -58 44 -70 47 -44 91 -206 70 -257 -6
-16 -17 -54 -25 -86 -21 -91 7 -91 31 1 13 50 40 57 56 15 10 -28 10 -28 18
16 7 40 9 42 17 21 5 -14 5 -26 -1 -29 -5 -3 -12 -32 -16 -64 -5 -37 -13 -61
-22 -64 -11 -4 -12 -8 -2 -13 7 -5 9 -15 4 -26 -5 -11 -7 -22 -7 -26 3 -14
-39 -8 -54 7 -9 8 -13 15 -9 15 3 0 3 6 -2 13 -4 6 -8 18 -9 25 -4 26 -14 25
-14 -1 0 -35 20 -77 37 -77 17 0 17 -20 1 -21 -7 0 -4 -4 7 -9 11 -5 14 -9 6
-9 -7 -1 -11 -7 -7 -16 4 -11 -1 -15 -17 -15 -18 0 -19 -2 -7 -10 12 -8 12
-10 -5 -10 -17 0 -17 -2 -5 -10 13 -9 13 -10 0 -10 -13 0 -13 -1 0 -10 13 -8
12 -10 -2 -10 -10 0 -18 -4 -18 -10 0 -5 -8 -10 -17 -10 -16 0 -16 -2 -3 -11
11 -8 -20 -9 -110 -6 -78 3 -110 1 -85 -4 22 -4 76 -8 120 -9 62 -1 75 -3 56
-11 -23 -9 -148 1 -251 20 l-45 8 40 2 c33 2 37 4 20 12 -14 6 -5 7 30 4 122
-12 160 -14 135 -5 -14 4 -45 9 -70 10 -25 1 -58 6 -75 10 -20 6 -6 7 45 5 41
-1 63 -1 48 2 -18 3 -25 9 -21 19 3 9 -1 14 -12 14 -10 0 -14 -5 -9 -12 4 -7
-2 -4 -14 6 -12 11 -22 15 -22 11 0 -4 -8 -1 -17 7 -10 9 -46 19 -80 23 -50 6
-66 4 -89 -12 -23 -15 -46 -18 -130 -17 -56 1 -110 7 -121 13 -17 10 -17 10 2
11 l20 1 -20 9 c-15 7 -8 9 30 11 l50 1 -60 9 c-78 11 -89 17 -40 19 36 2 32
3 -29 16 -70 14 -109 31 -46 21 59 -10 136 -17 125 -12 -5 3 -41 12 -80 20
l-70 14 75 -3 c47 -3 66 -1 50 4 -14 4 -39 8 -57 9 -17 1 -34 5 -37 10 -4 5
12 7 36 4 32 -3 39 -2 28 6 -8 6 -33 11 -55 12 -36 2 -35 3 15 9 36 4 44 8 25
9 -16 1 -39 6 -50 11 -17 7 -14 9 15 10 36 2 35 3 -15 16 l-30 8 35 6 c31 7
32 8 8 9 -16 0 -28 5 -28 10 0 5 10 7 23 4 15 -4 19 -2 12 5 -5 5 -19 12 -30
15 -15 3 -12 5 10 7 l30 2 -30 8 -30 8 29 1 c21 1 26 4 18 14 -17 20 10 35 56
31 23 -2 41 -1 41 4 -3 20 3 31 22 37 15 5 25 1 35 -14 15 -21 41 -31 29 -11
-3 6 1 7 10 3 13 -4 14 -8 4 -14 -10 -6 -9 -10 6 -15 27 -11 46 -30 37 -39 -4
-4 4 -5 17 -3 18 2 27 12 33 36 6 20 15 32 26 32 13 0 14 2 4 9 -11 6 -10 10
5 16 15 7 14 9 -12 15 -23 6 -13 8 40 10 l70 3 -68 8 c-94 10 -98 21 -6 15
l74 -5 -70 13 -70 14 65 3 c59 2 61 3 18 6 -27 2 -48 9 -48 15 0 5 10 8 23 5
12 -3 64 -9 115 -13 51 -3 95 -11 98 -15 3 -5 -27 -7 -68 -5 -53 4 -62 3 -33
-3 37 -8 38 -8 10 -11 -26 -2 -25 -3 14 -11 58 -11 63 -19 15 -20 -34 -1 -36
-2 -14 -9 l25 -8 -25 -2 c-15 -1 -19 -4 -10 -7 8 -2 22 -7 30 -9 11 -4 12 -7
2 -13 -9 -5 3 -15 37 -29 64 -28 76 -28 57 0 -23 32 -20 53 10 67 34 15 51 3
23 -17 l-22 -15 23 -19 c12 -10 31 -18 41 -18 21 0 26 -16 7 -23 -7 -3 1 -6
19 -6 17 -1 35 -5 38 -11 12 -20 24 -9 35 32 9 30 9 48 1 65 -6 13 -11 38 -11
56 0 34 -21 73 -52 95 -10 7 -16 18 -13 23 4 5 1 9 -4 9 -6 0 -11 -6 -11 -12
-1 -8 -6 -6 -14 5 -7 9 -25 17 -40 17 -14 0 -26 5 -26 10 0 6 11 8 26 4 19 -5
25 -4 20 5 -4 6 -19 12 -34 12 -17 1 -21 3 -9 6 21 5 21 13 4 38 -17 22 -41
11 -34 -16 3 -10 1 -22 -5 -25 -5 -3 -1 -12 9 -20 10 -7 13 -14 8 -14 -6 0
-11 -9 -12 -20 -2 -17 5 -20 40 -22 l42 -1 -43 -4 c-23 -2 -40 -8 -37 -13 6
-9 -21 -40 -35 -40 -5 0 -7 7 -4 15 4 11 -1 15 -17 16 l-24 2 23 4 c12 2 20 9
17 14 -4 5 -1 9 4 9 6 0 11 8 10 18 0 10 -3 12 -6 5 -10 -26 -22 -12 -16 21 4
25 1 37 -13 47 -11 8 -20 19 -20 24 -1 6 -4 23 -8 38 -4 17 -3 26 3 23 5 -3 4
5 -2 18 -7 13 -15 22 -19 20 -5 -3 -8 1 -9 8 0 7 -5 2 -10 -11 -5 -13 -7 -39
-3 -57 5 -26 3 -34 -8 -34 -12 0 -14 12 -10 58 7 85 6 113 -2 159 -8 37 -6 44
17 66 32 29 61 33 46 5z m104 -5 c3 -16 1 -35 -4 -43 -8 -11 -9 -10 -4 7 6 22
-7 26 -33 9 -10 -6 -9 0 2 23 20 38 32 39 39 4z m29 -18 l4 -30 11 25 10 25
21 -35 c16 -26 18 -36 9 -42 -8 -5 -4 -8 11 -8 14 0 22 -5 20 -12 -8 -22 -28
-20 -39 5 -6 14 -22 30 -35 36 -13 6 -24 19 -24 30 0 11 -3 28 -6 38 -5 12 -4
15 4 8 6 -5 12 -23 14 -40z m-89 3 c-21 -43 -27 -49 -18 -18 7 23 23 50 30 50
2 0 -4 -15 -12 -32z m149 10 c-7 -7 -12 -8 -12 -2 0 14 12 26 19 19 2 -3 -1
-11 -7 -17z m-503 -1 c-28 -21 -59 -36 -59 -29 0 9 37 30 54 31 5 1 7 0 5 -2z
m589 -25 c19 6 131 -82 162 -126 33 -50 38 -65 13 -45 -15 13 -15 12 -5 -8 15
-27 15 -36 1 -27 -7 4 -7 -2 1 -17 18 -34 24 -38 16 -11 -5 16 -3 22 7 22 27
0 36 -92 11 -117 -8 -9 -13 -21 -10 -28 3 -8 -2 -11 -15 -8 -10 3 -19 8 -19
12 0 3 -3 17 -7 30 -4 16 -2 22 4 18 6 -4 16 0 23 7 9 12 8 20 -5 40 -21 31
-30 34 -15 5 18 -32 4 -34 -15 -2 -9 15 -13 19 -10 8 17 -48 18 -58 7 -51 -8
5 -10 1 -5 -10 4 -12 3 -15 -5 -10 -14 8 -15 5 -6 -18 3 -9 10 -14 14 -11 5 3
8 -5 8 -17 -4 -62 3 -98 17 -98 11 0 13 -8 9 -32 -4 -25 -3 -29 5 -18 15 21
14 -1 -3 -52 -8 -24 -16 -54 -18 -68 l-4 -25 -13 29 c-7 18 -8 32 -2 35 10 7
3 61 -8 61 -4 0 -6 31 -6 69 0 38 -2 68 -6 65 -4 -2 -10 3 -13 12 -4 9 -9 14
-12 11 -3 -3 -1 -14 4 -24 5 -10 12 -38 15 -63 6 -44 6 -44 -9 10 -9 30 -16
64 -17 76 -2 20 -26 58 -33 51 -2 -1 4 -23 13 -47 18 -54 43 -154 38 -158 -4
-4 -28 67 -31 93 -3 25 -22 75 -29 75 -2 0 0 -12 5 -26 14 -36 13 -43 -10 -37
-16 4 -18 11 -13 31 4 17 2 23 -5 18 -6 -4 -16 2 -21 13 -14 25 -14 34 -1 26
6 -3 7 1 3 10 -4 12 -8 13 -13 5 -10 -15 -52 43 -56 77 -1 14 -10 33 -18 42
-21 24 -20 37 2 20 15 -13 16 -12 3 4 -8 9 -16 15 -19 12 -7 -6 -32 15 -32 27
0 5 5 6 10 3 17 -11 11 13 -9 32 -10 10 -22 29 -26 43 l-8 25 26 -27 c15 -16
27 -23 29 -16 2 6 18 -11 35 -38 31 -49 173 -203 173 -187 0 5 -25 33 -56 63
-69 68 -141 168 -104 145 6 -4 7 1 3 11 -5 13 -3 15 7 9 10 -6 12 -3 8 13 -4
13 -1 22 4 22 6 0 3 10 -8 22 -18 20 -17 20 14 -2 35 -26 41 -36 16 -26 -14 6
-15 4 -4 -9 10 -13 15 -13 21 -3 6 9 15 6 36 -12 l28 -25 -29 33 c-17 17 -24
32 -17 32 7 0 9 5 6 10 -3 6 -11 10 -16 10 -6 0 -7 -4 -4 -10 10 -16 -7 -12
-27 7 -21 19 -25 41 -4 24 8 -6 18 -10 24 -9z m-378 5 c0 -2 -10 -12 -21 -23
-22 -19 -22 -19 -10 4 10 18 31 31 31 19z m-400 -22 c-7 -9 -15 -13 -19 -10
-3 3 1 10 9 15 21 14 24 12 10 -5z m608 -40 c-3 -3 -9 2 -12 12 -6 14 -5 15 5
6 7 -7 10 -15 7 -18z m-28 -15 c0 -16 -4 -30 -9 -30 -5 0 -12 -8 -14 -17 -3
-10 -5 -2 -6 17 -1 27 -4 31 -11 20 -8 -12 -10 -11 -10 6 0 25 8 34 32 34 13
0 18 -8 18 -30z m380 -20 c0 -5 -4 -10 -10 -10 -5 0 -10 5 -10 10 0 6 5 10 10
10 6 0 10 -4 10 -10z m-336 -86 c3 -8 2 -12 -4 -9 -6 3 -10 10 -10 16 0 14 7
11 14 -7z m-144 -94 c0 -5 -22 -7 -52 -3 -72 8 -73 13 -5 13 32 0 57 -4 57
-10z m-220 -4 c0 -2 -8 -10 -17 -17 -16 -13 -17 -12 -4 4 13 16 21 21 21 13z
m245 -21 c6 -2 -16 -4 -47 -4 -32 -1 -58 3 -58 8 0 8 79 5 105 -4z m-35 -44
c37 -7 40 -9 15 -10 -26 -2 -27 -4 -10 -11 14 -6 0 -8 -45 -8 -56 1 -60 2 -25
8 l40 6 -40 8 c-22 4 -44 9 -50 11 -20 7 71 3 115 -4z m185 -11 c4 -7 -3 -8
-22 -4 -38 9 -42 14 -10 14 14 0 29 -5 32 -10z m295 -45 c0 -5 -5 -3 -10 5 -5
8 -10 20 -10 25 0 6 5 3 10 -5 5 -8 10 -19 10 -25z m-257 6 c-2 -6 3 -11 10
-11 7 0 21 -15 32 -32 13 -24 15 -30 3 -21 -8 7 -17 10 -20 7 -3 -3 -9 0 -14
7 -5 8 -3 10 6 4 9 -5 11 -4 6 4 -6 9 -11 9 -22 0 -11 -9 -14 -7 -14 9 0 11
-3 28 -7 38 -4 12 -2 15 8 12 8 -3 13 -11 12 -17z m-213 1 c0 -5 -28 -7 -62
-4 -90 5 -95 10 -10 11 39 1 72 -3 72 -7z m-376 -24 c11 -10 9 -15 -8 -24 -12
-6 -20 -16 -18 -22 1 -7 -4 -12 -10 -12 -9 0 -8 -4 2 -10 13 -8 12 -10 -3 -10
-10 0 -15 -4 -12 -10 4 -6 -5 -10 -19 -10 -14 0 -26 2 -26 5 0 18 33 65 45 65
20 0 30 21 14 31 -11 7 -10 9 4 9 10 0 24 -6 31 -12z m896 2 c0 -5 -2 -10 -4
-10 -3 0 -8 5 -11 10 -3 6 -1 10 4 10 6 0 11 -4 11 -10z m55 -60 c3 -35 2 -48
-3 -35 -13 28 -22 109 -12 99 5 -5 11 -34 15 -64z m-38 28 c-3 -8 -6 -5 -6 6
-1 11 2 17 5 13 3 -3 4 -12 1 -19z m-1007 -24 c-17 -42 -30 -64 -41 -64 -6 0
-7 6 -3 13 5 8 2 8 -9 -2 -11 -9 -17 -10 -17 -2 0 6 -5 10 -11 9 -6 -2 -13 2
-16 9 -5 14 64 63 89 63 15 0 16 -4 8 -26z m194 11 c-7 -16 -24 -21 -24 -6 0
6 -17 12 -37 14 -32 3 -29 4 14 5 43 2 51 -1 47 -13z m636 -6 c0 -6 -4 -7 -10
-4 -5 3 -10 11 -10 16 0 6 5 7 10 4 6 -3 10 -11 10 -16z m163 -29 c4 12 6 12
6 -2 1 -15 -16 -35 -23 -27 -2 2 -6 22 -9 44 l-6 40 13 -35 c9 -24 15 -30 19
-20z m-1116 10 c-5 -28 -48 -73 -60 -61 -14 14 11 42 32 39 11 -2 15 3 13 20
-2 12 1 22 7 22 6 0 10 -9 8 -20z m-176 -13 c-10 -9 -11 -8 -5 6 3 10 9 15 12
12 3 -3 0 -11 -7 -18z m69 19 c0 -3 -4 -8 -10 -11 -5 -3 -10 -1 -10 4 0 6 5
11 10 11 6 0 10 -2 10 -4z m65 -6 c-3 -5 -13 -10 -21 -10 -8 0 -12 5 -9 10 3
6 13 10 21 10 8 0 12 -4 9 -10z m698 3 c-7 -2 -19 -2 -25 0 -7 3 -2 5 12 5 14
0 19 -2 13 -5z m287 -13 c6 -11 8 -20 6 -20 -3 0 -10 9 -16 20 -6 11 -8 20 -6
20 3 0 10 -9 16 -20z m-1140 0 c0 -5 -5 -10 -11 -10 -5 0 -7 5 -4 10 3 6 8 10
11 10 2 0 4 -4 4 -10z m-55 -27 c-8 -16 -16 -36 -19 -45 -3 -10 -9 -18 -14
-18 -11 0 -13 38 -1 45 5 4 6 11 3 17 -4 6 -2 8 3 5 6 -4 16 0 23 8 19 23 21
18 5 -12z m100 8 c3 -6 -4 -15 -15 -21 -20 -11 -21 -10 -10 9 12 23 16 25 25
12z m25 -42 c-23 -21 -39 -43 -35 -49 3 -6 11 -8 16 -4 5 3 7 9 4 14 -3 5 8
18 25 30 16 12 30 17 30 11 0 -5 3 -16 6 -24 3 -10 -3 -18 -18 -23 -13 -4 -36
-17 -53 -28 -44 -32 -95 -48 -95 -31 0 8 8 16 18 20 18 5 85 81 88 98 1 4 2
13 3 21 1 9 10 12 27 8 l26 -5 -42 -38z m427 45 c-3 -3 -12 -4 -19 -1 -8 3 -5
6 6 6 11 1 17 -2 13 -5z m848 -3 c3 -5 1 -12 -5 -16 -5 -3 -10 1 -10 9 0 18 6
21 15 7z m-977 -18 c-10 -2 -26 -2 -35 0 -10 3 -2 5 17 5 19 0 27 -2 18 -5z
m-140 -15 c19 -19 14 -28 -17 -28 -36 0 -48 15 -24 29 23 13 27 13 41 -1z
m1132 -13 c0 -8 -7 -15 -15 -15 -13 0 -14 3 -3 15 16 18 18 18 18 0z m-306 -1
c21 -8 2 -44 -22 -43 -9 0 -12 3 -6 5 7 3 10 14 7 24 -6 22 -3 23 21 14z
m-1095 -56 c-13 -23 -22 -49 -20 -57 1 -7 -2 -10 -8 -6 -18 11 -12 40 14 71
14 16 25 33 25 38 0 5 3 7 6 4 3 -3 -5 -26 -17 -50z m44 32 c-3 -11 -9 -20
-15 -20 -5 0 -4 9 2 20 6 11 12 20 14 20 2 0 2 -9 -1 -20z m177 -5 c0 -9 -6
-12 -15 -9 -8 4 -17 -1 -21 -10 -3 -9 -13 -16 -22 -16 -12 0 -10 6 8 25 26 28
50 33 50 10z m-320 -35 c-6 -12 -14 -19 -17 -17 -2 3 1 15 7 27 6 12 14 19 17
17 2 -3 -1 -15 -7 -27z m54 -4 c-5 -12 -44 -31 -44 -21 0 17 16 35 31 35 12 0
16 -5 13 -14z m177 -46 c-13 -11 -28 -20 -33 -20 -6 0 0 9 13 20 13 10 29 19
34 19 6 0 -1 -9 -14 -19z m1141 -42 c-6 -6 -7 0 -4 19 5 21 7 23 10 9 2 -10 0
-22 -6 -28z m115 20 c-3 -8 -6 -5 -6 6 -1 11 2 17 5 13 3 -3 4 -12 1 -19z
m-1487 8 c0 -3 -4 -8 -10 -11 -5 -3 -10 -1 -10 4 0 6 5 11 10 11 6 0 10 -2 10
-4z m251 -33 c-8 -35 -51 -117 -58 -110 -2 3 1 15 7 27 6 12 9 24 7 27 -3 3
-13 -10 -23 -28 -17 -33 -51 -68 -68 -69 -5 0 -4 6 1 13 12 15 13 48 1 41 -5
-3 -6 -9 -3 -14 3 -4 -3 -14 -12 -21 -15 -12 -16 -12 -10 5 6 16 5 17 -7 7 -8
-7 -17 -8 -20 -3 -3 6 1 15 9 22 8 7 15 9 15 4 1 -5 11 2 23 17 24 28 74 62
96 65 7 2 20 12 28 23 19 28 22 26 14 -6z m139 17 c0 -5 -7 -7 -15 -4 -8 4
-15 8 -15 10 0 2 7 4 15 4 8 0 15 -4 15 -10z m-218 -32 c-7 -7 -12 -8 -12 -2
0 14 12 26 19 19 2 -3 -1 -11 -7 -17z m-62 9 c0 -2 -9 -12 -19 -21 -19 -17
-19 -17 -14 3 3 12 12 21 19 21 8 0 14 -2 14 -3z m263 -4 c-7 -2 -19 -2 -25 0
-7 3 -2 5 12 5 14 0 19 -2 13 -5z m996 -9 c7 9 20 16 27 16 21 0 17 -31 -5
-37 -12 -3 -23 -17 -26 -34 -10 -45 -20 -34 -22 24 0 29 2 44 6 34 6 -17 8
-17 20 -3z m110 -28 c0 -6 -4 -20 -9 -31 -7 -16 -9 -17 -9 -3 -1 9 -6 18 -13
20 -6 2 -9 12 -5 21 7 18 37 13 36 -7z m-1428 -13 c-8 -15 -10 -15 -11 -2 0
17 10 32 18 25 2 -3 -1 -13 -7 -23z m51 -25 c-7 -7 -12 -8 -12 -2 0 14 12 26
19 19 2 -3 -1 -11 -7 -17z m173 -8 c-4 -12 -9 -19 -12 -17 -3 3 -2 15 2 27 4
12 9 19 12 17 3 -3 2 -15 -2 -27z m-215 -10 c-6 -11 -8 -20 -5 -20 3 0 1 -9
-5 -20 -6 -11 -15 -20 -21 -20 -6 0 -7 5 -4 10 3 6 1 10 -6 10 -7 0 0 14 16
30 34 35 40 38 25 10z m1331 -21 c-9 -22 -10 -22 -10 -3 -1 11 2 24 6 27 12
12 14 0 4 -24z m46 16 c0 -8 -4 -12 -9 -9 -4 3 -8 9 -8 15 0 5 4 9 8 9 5 0 9
-7 9 -15z m-72 -59 c-4 -20 -11 -33 -16 -31 -4 3 -2 -7 6 -21 8 -15 11 -32 7
-38 -4 -7 -8 -4 -10 7 -2 9 -12 17 -23 17 -11 0 -18 -4 -15 -9 8 -13 -15 -26
-49 -29 -29 -2 -29 -1 -6 8 14 6 21 16 17 25 -3 9 3 19 14 25 15 8 20 8 21 -2
0 -7 6 2 12 19 7 18 17 32 22 30 6 -1 11 9 13 21 2 13 6 22 8 19 3 -3 2 -21
-1 -41z m-858 8 c-3 -3 -12 -4 -19 -1 -8 3 -5 6 6 6 11 1 17 -2 13 -5z m882
-35 c-7 -4 -16 -6 -18 -3 -3 3 1 9 9 14 8 6 11 10 7 10 -5 0 -5 6 0 13 5 8 9
7 11 -7 2 -10 -2 -22 -9 -27z m58 14 c-3 -3 -11 -2 -17 2 -9 6 -9 10 1 16 14
8 27 -7 16 -18z m-1251 -30 c2 -16 1 -16 -12 1 -8 11 -14 24 -14 30 0 16 24
-12 26 -31z m-59 -12 c-7 -2 -15 -9 -19 -15 -4 -6 -9 -8 -12 -5 -3 3 2 16 11
28 12 18 17 20 24 10 5 -9 4 -16 -4 -18z m248 19 c3 -5 1 -10 -4 -10 -6 0 -11
5 -11 10 0 6 2 10 4 10 3 0 8 -4 11 -10z m261 -17 c83 -6 87 -7 54 -17 -32
-10 -25 -11 65 -17 l100 -5 -120 -2 c-73 -1 -141 4 -175 13 -30 7 -48 14 -40
14 12 1 10 5 -5 18 -19 15 -19 15 6 9 14 -3 66 -9 115 -13z m-426 -13 c0 -5
-5 -10 -11 -10 -5 0 -7 5 -4 10 3 6 8 10 11 10 2 0 4 -4 4 -10z m1167 -27 c-3
-10 -5 -4 -5 12 0 17 2 24 5 18 2 -7 2 -21 0 -30z m83 5 c0 -16 -3 -19 -11
-11 -6 6 -8 16 -5 22 11 17 16 13 16 -11z m-1280 -14 c0 -8 -4 -12 -10 -9 -5
3 -10 10 -10 16 0 5 5 9 10 9 6 0 10 -7 10 -16z m1153 -4 c3 -11 1 -18 -4 -14
-5 3 -9 12 -9 20 0 20 7 17 13 -6z m-611 -8 c4 -4 -28 -5 -72 -2 -43 3 -81 7
-84 10 -7 8 148 -1 156 -8z m78 -2 c0 -5 -14 -10 -31 -10 -17 0 -28 4 -24 10
3 6 17 10 31 10 13 0 24 -4 24 -10z m-620 -25 c0 -8 -7 -15 -15 -15 -16 0 -20
12 -8 23 11 12 23 8 23 -8z m755 -6 c28 -5 86 -11 130 -15 115 -8 108 -17 -10
-12 -55 3 -89 1 -75 -3 14 -4 61 -8 105 -9 44 -2 69 -5 55 -7 -14 -3 -28 -10
-32 -17 -5 -8 -31 -11 -80 -9 -55 2 -67 0 -50 -7 13 -6 28 -8 32 -5 4 3 19 1
32 -4 19 -8 15 -10 -27 -12 l-50 -2 40 -7 c34 -6 28 -8 -40 -10 l-80 -3 55 -8
55 -7 -63 2 c-34 0 -62 -2 -62 -6 0 -5 -17 -7 -37 -7 l-38 2 35 8 c26 6 18 7
-30 4 -38 -3 -59 -1 -52 4 10 6 3 10 -22 15 -37 7 -66 29 -66 49 0 9 20 11 73
6 39 -3 74 -4 76 -3 6 5 -41 12 -112 18 -63 5 -125 24 -87 26 10 1 8 4 -5 9
-11 5 24 7 80 5 l100 -3 -99 9 c-54 5 -101 12 -104 15 -8 8 296 -5 353 -16z
m-605 -9 c0 -5 -2 -10 -4 -10 -3 0 -8 5 -11 10 -3 6 -1 10 4 10 6 0 11 -4 11
-10z m-130 -16 c0 -8 -5 -12 -10 -9 -6 4 -8 11 -5 16 9 14 15 11 15 -7z m-60
-4 c0 -5 -5 -10 -11 -10 -5 0 -7 5 -4 10 3 6 8 10 11 10 2 0 4 -4 4 -10z
m1187 -12 c-3 -8 -6 -5 -6 6 -1 11 2 17 5 13 3 -3 4 -12 1 -19z m-37 -18 c0
-5 -2 -10 -4 -10 -3 0 -8 5 -11 10 -3 6 -1 10 4 10 6 0 11 -4 11 -10z m80 -10
c0 -5 -4 -10 -10 -10 -5 0 -10 5 -10 10 0 6 5 10 10 10 6 0 10 -4 10 -10z
m-1140 -38 c-7 -3 -21 -13 -30 -22 -19 -19 -53 -40 -65 -40 -9 0 29 49 38 50
5 0 5 -6 2 -12 -4 -7 3 -2 14 12 11 14 21 21 21 15 0 -5 6 -1 12 10 9 15 13
16 16 5 3 -8 -1 -16 -8 -18z m1096 -19 c-18 -33 -21 -26 -6 13 6 15 13 24 16
21 3 -3 -1 -18 -10 -34z m-129 1 c-3 -3 -12 -4 -19 -1 -8 3 -5 6 6 6 11 1 17
-2 13 -5z m-496 -13 c-11 -7 -9 -10 10 -14 21 -4 22 -4 3 -6 -12 0 -27 6 -34
14 -10 13 -9 15 11 15 18 0 20 -3 10 -9z m-411 -11 c0 -13 -11 -13 -30 0 -12
8 -11 10 8 10 12 0 22 -4 22 -10z m114 -5 c-4 -8 -10 -15 -15 -15 -4 0 -6 7
-3 15 4 8 10 15 15 15 4 0 6 -7 3 -15z m806 5 c-8 -5 -24 -9 -35 -9 -16 1 -16
2 5 9 35 11 48 11 30 0z m-120 -4 c0 -2 -7 -7 -16 -10 -8 -3 -12 -2 -9 4 6 10
25 14 25 6z m55 -6 c-3 -5 -12 -10 -18 -10 -7 0 -6 4 3 10 19 12 23 12 15 0z
m-405 -20 c-36 -11 -52 -11 -45 0 3 6 21 10 38 9 31 -1 31 -1 7 -9z m465 0
c-16 -4 -39 -8 -50 -9 -16 -1 -17 1 -5 9 8 5 31 9 50 9 l35 -1 -30 -8z m-790
-10 c3 -5 1 -10 -4 -10 -6 0 -11 5 -11 10 0 6 2 10 4 10 3 0 8 -4 11 -10z
m370 -10 c-3 -5 -27 -9 -53 -8 l-47 1 45 7 c25 4 49 8 53 8 5 1 5 -2 2 -8z
m492 -12 c-3 -8 -6 -5 -6 6 -1 11 2 17 5 13 3 -3 4 -12 1 -19z m-969 -30 c2
-49 -3 -47 -12 5 -4 20 -3 37 2 37 5 0 9 -19 10 -42z m-191 12 c-14 -11 -29
-20 -33 -20 -4 0 1 9 11 20 10 11 25 20 33 20 9 0 6 -7 -11 -20z m1214 -11
c-5 -13 -10 -19 -10 -12 -1 15 10 45 15 40 3 -2 0 -15 -5 -28z m-531 10 c-25
-4 -58 -7 -75 -7 -29 0 -29 0 -5 8 14 4 48 8 75 8 l50 -1 -45 -8z m-805 -18
c-3 -6 -11 -11 -17 -11 -6 0 -6 6 2 15 14 17 26 13 15 -4z m390 9 c3 -5 1 -10
-4 -10 -6 0 -11 5 -11 10 0 6 2 10 4 10 3 0 8 -4 11 -10z m568 3 c-7 -2 -19
-2 -25 0 -7 3 -2 5 12 5 14 0 19 -2 13 -5z m-66 -9 c-3 -3 -12 -4 -19 -1 -8 3
-5 6 6 6 11 1 17 -2 13 -5z m123 2 c0 -2 -7 -7 -16 -10 -8 -3 -12 -2 -9 4 6
10 25 14 25 6z m-870 -21 c-7 -8 -17 -15 -22 -15 -6 0 -5 7 2 15 7 8 17 15 22
15 6 0 5 -7 -2 -15z m668 8 c-15 -2 -42 -2 -60 0 -18 2 -6 4 27 4 33 0 48 -2
33 -4z m111 -13 c-38 -11 -205 -23 -196 -14 7 7 119 19 197 22 l25 0 -26 -8z
m126 0 c-3 -5 -16 -10 -28 -9 -21 0 -21 1 -2 9 28 12 37 12 30 0z m-658 -22
c-3 -8 -6 -5 -6 6 -1 11 2 17 5 13 3 -3 4 -12 1 -19z m730 16 c-3 -3 -12 -4
-19 -1 -8 3 -5 6 6 6 11 1 17 -2 13 -5z m-942 -14 c3 -5 1 -10 -4 -10 -6 0
-11 5 -11 10 0 6 2 10 4 10 3 0 8 -4 11 -10z m55 0 c0 -5 -4 -10 -10 -10 -5 0
-10 5 -10 10 0 6 5 10 10 10 6 0 10 -4 10 -10z m745 0 c-3 -5 -23 -9 -43 -9
l-37 2 35 7 c52 11 52 11 45 0z m-665 -42 c0 -6 -7 -5 -15 2 -8 7 -15 17 -15
22 0 6 7 5 15 -2 8 -7 15 -17 15 -22z m579 28 c-10 -9 -209 -14 -204 -6 4 6
52 10 107 10 56 0 99 -2 97 -4z m136 -6 c-11 -5 -27 -9 -35 -9 -9 0 -8 4 5 9
11 5 27 9 35 9 9 0 8 -4 -5 -9z m-765 -10 c8 -5 11 -12 7 -16 -4 -4 -15 0 -24
9 -18 18 -8 23 17 7z m1014 -34 c-3 -21 -9 -35 -11 -32 -3 3 -2 21 1 42 4 20
10 34 12 31 3 -3 2 -21 -2 -41z m-1140 9 c-16 -25 -42 -36 -28 -12 14 23 27
37 35 37 5 0 2 -11 -7 -25z m756 15 c0 -5 -8 -9 -17 -8 -49 4 -185 -3 -179 -9
3 -4 48 -6 99 -4 50 1 89 0 86 -3 -3 -3 -61 -8 -130 -10 -68 -3 -114 -2 -101
0 12 3 22 12 22 19 0 9 16 15 48 18 102 8 172 7 172 -3z m-660 -4 c0 -3 -4 -8
-10 -11 -5 -3 -10 -1 -10 4 0 6 5 11 10 11 6 0 10 -2 10 -4z m775 -16 c-11 -5
-29 -9 -40 -9 l-20 0 20 9 c11 5 29 9 40 9 l20 0 -20 -9z m35 -20 c0 -5 -10
-10 -22 -9 -22 0 -22 1 -3 9 11 5 21 9 23 9 1 1 2 -3 2 -9z m-978 -32 c-7 -7
-12 -20 -12 -29 0 -9 -8 -23 -17 -30 -15 -12 -16 -12 -11 7 4 17 2 20 -12 17
-12 -3 -19 3 -22 21 -5 26 12 50 20 28 5 -17 32 -15 39 4 4 11 9 12 16 5 8 -8
8 -14 -1 -23z m1229 5 c-12 -20 -14 -14 -5 12 4 9 9 14 11 11 3 -2 0 -13 -6
-23z m71 5 c-7 -7 -12 -8 -12 -2 0 14 12 26 19 19 2 -3 -1 -11 -7 -17z m-1258
-38 c-13 -28 -28 -50 -34 -50 -5 0 3 23 17 50 14 28 29 50 34 50 4 0 -4 -22
-17 -50z m28 8 c-7 -7 -12 -8 -12 -2 0 6 3 14 7 17 3 4 9 5 12 2 2 -3 -1 -11
-7 -17z m868 2 c-20 -13 -33 -13 -25 0 3 6 14 10 23 10 15 0 15 -2 2 -10z
m414 -14 c-8 -14 -15 -40 -14 -58 3 -48 -1 -58 -9 -23 l-7 30 -23 -53 c-33
-74 -36 -60 -4 18 29 73 51 110 64 110 5 0 2 -11 -7 -24z m-1434 -15 c0 -9 6
-23 13 -30 10 -10 8 -15 -7 -26 -10 -8 -23 -12 -27 -9 -5 3 -8 -4 -6 -15 1
-11 -2 -20 -7 -20 -5 1 -12 -5 -17 -12 -14 -23 -21 -2 -7 23 7 12 14 28 14 33
1 6 2 15 3 20 1 6 5 4 10 -4 7 -10 13 -11 27 -2 11 6 13 11 7 11 -7 0 -13 7
-13 15 0 18 -12 19 -28 3 -18 -18 -14 3 4 23 19 21 34 16 34 -10z m942 19
c-59 -14 -182 -22 -182 -12 0 5 28 10 62 11 34 1 64 4 67 6 2 3 23 5 45 4 l41
-1 -33 -8z m-992 -4 c0 -3 -4 -8 -10 -11 -5 -3 -10 -1 -10 4 0 6 5 11 10 11 6
0 10 -2 10 -4z m1388 -23 c-2 -9 -9 -18 -16 -19 -7 -1 -8 0 -3 2 6 3 7 12 4
20 -3 8 0 14 7 14 6 0 10 -8 8 -17z m-1268 -23 c0 -5 -5 -10 -11 -10 -5 0 -7
5 -4 10 3 6 8 10 11 10 2 0 4 -4 4 -10z m-38 -42 c-7 -7 -12 -8 -12 -2 0 14
12 26 19 19 2 -3 -1 -11 -7 -17z m-22 -2 c0 -3 -4 -8 -10 -11 -5 -3 -10 -1
-10 4 0 6 5 11 10 11 6 0 10 -2 10 -4z"/>
<path d="M770 1650 c-8 -5 -10 -10 -5 -10 6 0 17 5 25 10 8 5 11 10 5 10 -5 0
-17 -5 -25 -10z"/>
<path d="M1180 1395 c0 -8 4 -15 10 -15 5 0 7 7 4 15 -4 8 -8 15 -10 15 -2 0
-4 -7 -4 -15z"/>
<path d="M905 1110 c3 -5 8 -10 11 -10 2 0 4 5 4 10 0 6 -5 10 -11 10 -5 0 -7
-4 -4 -10z"/>
<path d="M661 1054 c0 -11 3 -14 6 -6 3 7 2 16 -1 19 -3 4 -6 -2 -5 -13z"/>
<path d="M1248 1003 c6 -2 18 -2 25 0 6 3 1 5 -13 5 -14 0 -19 -2 -12 -5z"/>
<path d="M860 873 c0 -15 35 -53 50 -53 5 0 13 -6 17 -14 11 -18 95 -27 89 -9
-3 7 -1 13 5 13 6 0 7 5 3 12 -5 8 0 9 14 6 12 -4 22 -2 22 3 0 5 7 9 15 9 8
0 15 5 15 10 0 6 -6 10 -14 10 -7 0 -19 7 -26 15 -7 8 -22 15 -34 14 -20 0
-21 -1 -1 -9 26 -11 -41 -12 -107 -1 -37 6 -48 5 -48 -6z m137 -19 c-3 -3 -12
-4 -19 -1 -8 3 -5 6 6 6 11 1 17 -2 13 -5z"/>
<path d="M935 770 c28 -12 65 -12 65 0 0 6 -19 10 -42 9 -33 0 -38 -2 -23 -9z"/>
<path d="M843 753 c9 -2 25 -2 35 0 9 3 1 5 -18 5 -19 0 -27 -2 -17 -5z"/>
<path d="M655 730 c3 -5 16 -10 28 -9 21 0 21 1 2 9 -28 12 -37 12 -30 0z"/>
<path d="M753 723 c20 -2 54 -2 75 0 20 2 3 4 -38 4 -41 0 -58 -2 -37 -4z"/>
<path d="M1350 1595 c0 -2 10 -10 23 -16 20 -11 21 -11 8 4 -13 16 -31 23 -31
12z"/>
<path d="M1320 1525 c13 -14 25 -25 27 -25 9 0 -33 49 -41 50 -5 0 1 -11 14
-25z"/>
<path d="M1301 1512 c13 -15 37 -38 54 -51 16 -14 8 -1 -20 27 -54 57 -70 68
-34 24z"/>
<path d="M1229 1492 c5 -10 18 -25 28 -33 12 -10 11 -5 -6 19 -24 35 -38 43
-22 14z"/>
<path d="M1370 1342 c0 -12 19 -26 26 -19 2 2 -2 10 -11 17 -9 8 -15 8 -15 2z"/>
<path d="M1467 1110 c3 -11 7 -20 9 -20 2 0 4 9 4 20 0 11 -4 20 -9 20 -5 0
-7 -9 -4 -20z"/>
<path d="M703 673 c9 -2 23 -2 30 0 6 3 -1 5 -18 5 -16 0 -22 -2 -12 -5z"/>
<path d="M785 569 c22 -4 51 -8 65 -7 16 0 11 3 -15 9 -22 4 -51 8 -65 7 -16
0 -11 -3 15 -9z"/>
<path d="M1098 543 c17 -2 47 -2 65 0 17 2 3 4 -33 4 -36 0 -50 -2 -32 -4z"/>
<path d="M788 523 c6 -2 18 -2 25 0 6 3 1 5 -13 5 -14 0 -19 -2 -12 -5z"/>
<path d="M863 513 c9 -2 23 -2 30 0 6 3 -1 5 -18 5 -16 0 -22 -2 -12 -5z"/>
<path d="M855 490 c19 -8 133 -14 124 -6 -2 2 -35 6 -74 9 -44 4 -63 3 -50 -3z"/>
<path d="M570 1589 l-25 -20 33 16 c17 8 32 18 32 20 0 10 -16 4 -40 -16z"/>
<path d="M558 1549 l-33 -31 38 27 c20 15 37 29 37 31 0 10 -12 2 -42 -27z"/>
<path d="M763 1546 c-15 -13 -25 -27 -22 -30 3 -3 18 8 34 24 35 36 27 40 -12
6z"/>
<path d="M880 1529 c0 -6 -7 -9 -15 -6 -8 4 -17 2 -20 -3 -4 -6 -11 -10 -16
-10 -6 0 -7 6 -3 12 5 7 -18 -9 -49 -37 -31 -27 -57 -54 -57 -59 0 -6 6 -4 13
5 15 20 95 62 105 55 4 -2 23 9 42 25 26 21 30 29 18 29 -10 0 -18 -5 -18 -11z"/>
<path d="M503 1468 c-15 -20 -25 -38 -20 -38 3 0 12 11 21 25 17 26 16 35 -1
13z"/>
<path d="M835 1460 c-3 -5 -1 -10 4 -10 6 0 11 5 11 10 0 6 -2 10 -4 10 -3 0
-8 -4 -11 -10z"/>
<path d="M520 1445 c-7 -9 -11 -17 -9 -20 3 -2 10 5 17 15 14 24 10 26 -8 5z"/>
<path d="M405 1429 c-4 -6 -5 -12 -2 -15 2 -3 7 2 10 11 7 17 1 20 -8 4z"/>
<path d="M460 1390 c-6 -11 -8 -20 -6 -20 3 0 10 9 16 20 6 11 8 20 6 20 -3 0
-10 -9 -16 -20z"/>
<path d="M430 1380 c-6 -11 -8 -20 -6 -20 3 0 10 9 16 20 6 11 8 20 6 20 -3 0
-10 -9 -16 -20z"/>
<path d="M551 1378 c-22 -21 -23 -22 -17 -3 8 25 -40 -30 -53 -60 -10 -23 5
-48 23 -38 6 3 -8 -11 -32 -32 -47 -41 -50 -59 -4 -26 16 11 31 18 34 16 3 -3
13 5 24 17 10 12 13 18 7 14 -7 -4 -13 -4 -13 1 0 12 57 43 125 68 32 13 61
28 63 35 3 9 0 10 -9 4 -8 -5 -25 -10 -39 -10 -14 -1 -25 -3 -25 -4 0 -1 -10
-3 -23 -6 -22 -4 -22 -3 -6 24 13 21 9 19 -21 -11 -20 -21 -39 -36 -43 -33 -3
4 7 20 23 36 33 35 21 41 -14 8z m-35 -46 c-18 -16 -18 -16 -6 6 6 13 14 21
18 18 3 -4 -2 -14 -12 -24z"/>
<path d="M455 1330 c-4 -6 -23 -17 -42 -25 -40 -17 -40 -30 0 -20 21 6 69 55
53 55 -3 0 -8 -5 -11 -10z"/>
<path d="M660 1330 c-11 -7 -11 -10 -2 -10 7 0 10 -5 6 -11 -4 -7 1 -10 12 -7
20 3 26 29 9 35 -5 1 -17 -2 -25 -7z"/>
<path d="M177 1266 c-17 -13 -17 -14 5 -14 13 0 37 -3 53 -7 l30 -7 -33 21
c-38 24 -32 24 -55 7z"/>
<path d="M95 1200 c-3 -5 -1 -10 4 -10 6 0 11 5 11 10 0 6 -2 10 -4 10 -3 0
-8 -4 -11 -10z"/>
<path d="M106 1171 c-15 -16 -23 -32 -18 -35 5 -3 15 1 22 9 7 8 9 15 5 15 -5
0 0 9 10 20 28 31 12 24 -19 -9z"/>
<path d="M1 884 c0 -11 3 -14 6 -6 3 7 2 16 -1 19 -3 4 -6 -2 -5 -13z"/>
<path d="M100 680 c-16 -18 -30 -39 -30 -48 0 -13 -2 -13 -13 2 -15 20 -48 19
-55 -3 -3 -9 2 -11 17 -6 16 5 21 2 21 -12 0 -11 -5 -24 -11 -30 -8 -8 -8 -13
0 -17 6 -4 11 0 11 8 0 9 13 22 28 30 16 8 35 23 43 33 13 16 13 17 -3 4 -27
-21 -21 0 9 31 14 15 24 31 20 34 -3 4 -20 -8 -37 -26z"/>
<path d="M165 480 c-3 -5 -1 -10 4 -10 6 0 11 5 11 10 0 6 -2 10 -4 10 -3 0
-8 -4 -11 -10z"/>
<path d="M1859 390 c18 -15 19 -20 7 -20 -23 0 -20 -13 11 -41 22 -19 24 -20
10 -2 -11 13 -14 23 -8 27 13 8 43 -37 45 -67 2 -28 -14 -46 -34 -39 -9 3 -8
-1 4 -10 10 -8 16 -20 12 -26 -4 -7 -1 -12 8 -12 8 0 21 -10 27 -22 11 -21 11
-22 -4 -10 -14 12 -15 10 -13 -14 3 -28 26 -47 26 -22 1 7 10 -4 21 -24 11
-21 22 -38 24 -38 8 0 -22 69 -51 118 -14 23 -20 42 -15 42 6 0 13 16 17 36 5
28 3 39 -10 46 -9 5 -16 15 -16 22 0 14 -64 76 -78 76 -4 -1 4 -10 17 -20z"/>
<path d="M1460 326 c0 -8 5 -18 10 -21 6 -3 10 3 10 14 0 12 -4 21 -10 21 -5
0 -10 -6 -10 -14z"/>
<path d="M1850 255 c-24 -14 -24 -14 -4 -15 12 0 24 7 28 15 6 18 7 18 -24 0z"/>
<path d="M1732 241 c-11 -7 -10 -9 3 -14 11 -5 14 -3 10 6 -4 6 0 4 8 -6 14
-17 17 -17 44 -3 l28 16 -30 -6 c-23 -4 -26 -3 -15 5 12 9 10 11 -10 11 -14 0
-31 -4 -38 -9z"/>
<path d="M1610 234 c0 -5 7 -19 15 -30 8 -10 15 -14 15 -8 0 5 -7 19 -15 30
-8 10 -15 14 -15 8z"/>
<path d="M1840 219 c0 -5 5 -7 10 -4 6 3 10 8 10 11 0 2 -4 4 -10 4 -5 0 -10
-5 -10 -11z"/>
<path d="M1803 210 c-13 -5 -23 -12 -23 -15 0 -9 16 -5 36 10 22 16 19 18 -13
5z"/>
<path d="M1600 195 c0 -15 18 -40 24 -34 3 3 -1 14 -9 25 -8 10 -14 15 -15 9z"/>
<path d="M1810 180 c0 -5 7 -7 15 -4 8 4 15 8 15 10 0 2 -7 4 -15 4 -8 0 -15
-4 -15 -10z"/>
<path d="M1700 177 c0 -10 59 -97 66 -97 6 0 -21 47 -47 81 -10 13 -19 20 -19
16z"/>
<path d="M675 140 c-17 -7 -15 -9 12 -9 17 -1 35 4 38 9 7 12 -22 12 -50 0z"/>
<path d="M903 131 c-34 -3 -65 -10 -70 -15 -5 -5 9 -6 32 -3 22 4 57 7 78 7
20 0 37 5 37 10 0 6 -3 9 -7 8 -5 0 -36 -4 -70 -7z"/>
<path d="M1287 106 c-16 -18 -18 -19 -12 -2 5 16 3 17 -10 6 -12 -10 -13 -15
-4 -21 10 -6 10 -11 1 -21 -6 -8 -15 -26 -21 -41 -15 -39 6 -34 23 6 8 17 21
41 30 52 12 14 11 7 -4 -23 -28 -58 -19 -79 9 -24 16 31 20 50 14 67 l-8 23
-18 -22z"/>
<path d="M1820 120 c8 -5 22 -9 30 -9 10 0 8 3 -5 9 -27 12 -43 12 -25 0z"/>
<path d="M686 111 c5 -5 27 -6 49 -1 l40 8 -49 1 c-30 1 -46 -3 -40 -8z"/>
<path d="M963 103 c9 -2 23 -2 30 0 6 3 -1 5 -18 5 -16 0 -22 -2 -12 -5z"/>
<path d="M720 90 c-20 -7 -16 -8 22 -9 26 -1 50 4 53 9 7 12 -38 12 -75 0z"/>
<path d="M1660 87 c0 -7 7 -22 16 -33 14 -18 15 -18 4 4 -6 12 -8 27 -5 32 3
6 1 10 -4 10 -6 0 -11 -6 -11 -13z"/>
<path d="M1828 93 c7 -3 16 -2 19 1 4 3 -2 6 -13 5 -11 0 -14 -3 -6 -6z"/>
<path d="M1095 74 l-50 -13 48 3 c26 2 51 6 54 10 13 12 -3 12 -52 0z"/>
<path d="M1868 83 c7 -3 16 -2 19 1 4 3 -2 6 -13 5 -11 0 -14 -3 -6 -6z"/>
<path d="M260 59 c0 -5 5 -7 10 -4 6 3 10 8 10 11 0 2 -4 4 -10 4 -5 0 -10 -5
-10 -11z"/>
<path d="M710 61 c-48 -13 -4 -17 60 -5 l65 12 -50 0 c-27 0 -61 -3 -75 -7z"/>
<path d="M1770 56 c0 -9 5 -16 10 -16 6 0 10 4 10 9 0 6 -4 13 -10 16 -5 3
-10 -1 -10 -9z"/>
<path d="M225 41 c3 -5 -5 -17 -17 -25 -16 -12 -18 -16 -7 -16 19 0 52 34 42
43 -10 10 -25 8 -18 -2z"/>
<path d="M763 41 c-34 -3 -65 -10 -70 -14 -11 -12 129 3 142 14 6 6 6 8 0 7
-6 0 -38 -4 -72 -7z"/>
<path d="M1070 40 c-13 -9 -13 -10 0 -9 8 0 24 4 35 9 l20 9 -20 0 c-11 0 -27
-4 -35 -9z"/>
<path d="M1765 20 c-7 -11 -6 -12 58 -15 26 -1 50 2 53 7 4 6 -2 7 -16 3 -17
-5 -21 -4 -15 6 6 9 3 10 -11 5 -10 -5 -28 -10 -39 -13 -16 -4 -17 -3 -5 6 13
9 13 11 -2 11 -9 0 -20 -4 -23 -10z"/>
<path d="M745 10 l-60 -7 55 0 c30 -1 66 3 80 7 30 10 13 10 -75 0z"/>
</g>
</svg>
